<svg width="203" height="81" viewBox="0 0 203 81" fill="none" xmlns="http://www.w3.org/2000/svg"><path d="M0 45c3.477 8.228 11.569 14 21 14-3.477-8.232-11.569-14-21-14zm21 14c7.113 0 13.237-4.103 16-10-7.11 0-13.235 4.103-16 10z" fill="#12B36A"/><path fill-rule="evenodd" clip-rule="evenodd" d="M21 47c9.389 0 17-7.61 17-17 0-9.387-7.611-17-17-17-9.39 0-17 7.613-17 17 0 9.39 7.61 17 17 17zm0-8.499a8.5 8.5 0 008.5-8.5 8.5 8.5 0 00-8.5-8.5 8.5 8.5 0 100 17z" fill="#FEBE10"/><path d="M131.682 29.768h7.179V57.23h-7.179V46.535h-12.535V57.23h-7.18V29.768h7.18v10.12h12.535v-10.12zm10.56 6.812h8.938v20.65h7.179V36.58h8.83v-6.812h-24.947v6.812zM202 51.257v5.837c-1.224.605-2.753.906-4.538.906-3.73 0-5.607-1.602-6.36-4.181l-.119.173c-2.172 2.69-5.176 4.008-9.072 4.008-3.731 0-6.903-1.372-9.574-4.174-2.615-2.801-3.95-6.262-3.95-10.327 0-4.061 1.335-7.467 3.95-10.269 2.671-2.8 5.843-4.23 9.574-4.23 3.723 0 6.632 1.209 8.778 3.67v-2.9h7.18v19.426c0 1.66.765 2.514 2.295 2.514.716-.002 1.327-.152 1.836-.453zm-11.017-7.76c0-2.248-.723-4.116-2.226-5.545-1.447-1.481-3.284-2.197-5.511-2.197-2.226 0-4.062.714-5.51 2.197-1.446 1.43-2.17 3.297-2.17 5.545 0 2.254.724 4.122 2.17 5.605 1.448 1.427 3.284 2.141 5.51 2.141 2.227 0 4.064-.714 5.511-2.14 1.503-1.484 2.226-3.352 2.226-5.606zM52.823 29.768l-.215 10.318c-.05 4.178-.204 6.241-.816 8.604-.56 2.266-1.632 2.905-3.312 2.905-.562 0-1.071-.05-1.48-.202v5.837c.56.301 1.48.451 2.703.451 5.047-.15 7.495-2.5 8.72-6.727.866-3.02 1.02-5.335 1.173-8.806l.16-5.57h8.915v20.65h7.18V29.766h-23.03v.002zm34.575 15.585c.773 4.687 4.539 6.221 8.36 6.221 2.531 0 5.184-.976 6.816-2.436l4.428 4.396C104.358 56.424 100.676 58 95.645 58c-7.043 0-15.54-4.103-15.54-14.5 0-10.396 8.182-14.5 15.131-14.5 8.79 0 12.427 4.075 12.427 8.644.001 7.47-9.618 10.92-20.265 7.709zm12.471-6.9c0-2.13-2.135-3.082-4.527-3.082-3.655 0-6.822 1.523-7.785 5.441 7.447 2.123 12.312.54 12.312-2.36z" fill="#0B27BD"/></svg>