<svg width="223" height="42" viewBox="0 0 223 42" fill="none" xmlns="http://www.w3.org/2000/svg"><path d="M119 35V7h17v6.503h-9.911V35H119zm38.828 0V24.034h-10.656V35H140V7h7.172v10.45h10.656V7H165v28h-7.172zm49.559 0V13.503H199V7h24v6.503h-8.428V35h-7.185zm-19.391 0V19.042L176.853 35H171V7h7v15.792L188.956 7H195v28h-7.004zM77.745 35V18.36L70.5 27.15l-7.244-8.79V35H56V7h7.16l7.34 9.628L77.84 7H85v28h-7.255zm20.33-9.845h6.736l-3.368-8.78-3.368 8.78zM108.589 35l-1.517-3.924H95.803L94.286 35H87L98.147 7h6.702L116 35h-7.411zM0 12.986C.007 9.543 1.315 6.244 3.637 3.81 5.96 1.376 9.107.006 12.392 0H41v6.6H12.4c-1.614.008-3.16.683-4.301 1.879a6.575 6.575 0 00-1.794 4.507l-.038 11.08a6.603 6.603 0 01-1.636 3.796 6.078 6.078 0 01-3.507 1.957L0 30V12.986zM0 42v-6.601h28.606c1.613-.008 3.159-.684 4.3-1.88A6.58 6.58 0 0034.7 29.01V18.495a6.617 6.617 0 011.48-4.156 6.069 6.069 0 013.696-2.162L41 12v17.01c-.007 3.443-1.315 6.743-3.637 9.177-2.322 2.435-5.47 3.806-8.754 3.813H0z" fill="#E30613"/><path d="M24.159 30v-8.64L20.5 26.089l-3.655-4.727V30H12V13h4.588l3.912 5.467L24.412 13H29v17h-4.841z" fill="#E30613"/></svg>