<svg width="258" height="57" viewBox="0 0 258 57" fill="none" xmlns="http://www.w3.org/2000/svg"><path fill-rule="evenodd" clip-rule="evenodd" d="M68 41.972v-23.47h19.808v23.47H82.97V22.988H72.837v18.984H68zm33.962-13.525h-2.746c-2.288 0-3.433.786-3.433 2.323 0 1.506 1.113 2.258 3.336 2.258.981 0 1.928-.061 2.843-.218v-4.363zm4.478-3.576v17.1h-4.478v-5.933c-.868.152-1.787.352-2.897.383l-3.706 5.55h-5.034l4.427-6.154c-2.322-.942-3.544-2.568-3.544-5.11 0-3.483 2.646-5.836 7.878-5.836h7.354zm30.27 1.443c1.371 1.287 2.058 3.044 2.058 5.334v10.323h-4.608v-9.508c0-2.603-1.438-3.984-3.564-3.984-2.322 0-3.922 1.6-3.922 4.11v9.383h-4.609v-9.476c0-2.541-1.406-4.017-3.596-4.017-2.254 0-3.889 1.6-3.889 4.143v9.35h-4.609V24.871h4.511v2.447c1.013-1.788 3.104-2.948 5.425-2.917 2.223 0 4.283 1.036 5.231 3.012 1.307-1.883 3.725-3.012 6.373-3.012 2.126 0 3.857.624 5.199 1.913zm38.147 10.605c.914-.942 1.372-2.101 1.372-3.481 0-1.382-.458-2.542-1.372-3.485-.915-.94-2.093-1.411-3.563-1.411-1.438 0-2.616.471-3.529 1.411-.917.943-1.375 2.103-1.375 3.485 0 1.38.46 2.54 1.375 3.482.914.941 2.091 1.411 3.529 1.411 1.47 0 2.648-.47 3.563-1.412zm3.53-9.883c1.667 1.726 2.485 3.86 2.485 6.37 0 2.51-.85 4.643-2.518 6.37-1.666 1.725-3.758 2.602-6.277 2.602-2.188 0-4.209-.918-5.588-2.543V49h-4.609V24.87h4.575v2.244c1.464-1.752 3.401-2.681 5.656-2.681 2.517 0 4.608.877 6.276 2.603zM192.084 38.3c1.405 0 2.549-.471 3.496-1.413.949-.972 1.439-2.133 1.439-3.482 0-1.35-.49-2.51-1.438-3.451-.948-.942-2.092-1.412-3.497-1.412-1.406 0-2.583.47-3.531 1.412-.947.941-1.405 2.102-1.405 3.451 0 1.349.458 2.51 1.405 3.482.948.942 2.125 1.413 3.531 1.413zm-6.865-11.265c1.799-1.758 4.087-2.635 6.865-2.635 2.778 0 5.065.877 6.864 2.635 1.797 1.726 2.68 3.86 2.68 6.37 0 2.54-.883 4.675-2.68 6.4-1.799 1.725-4.086 2.605-6.864 2.605-2.778 0-5.066-.88-6.865-2.604-1.798-1.726-2.68-3.86-2.68-6.401 0-2.51.882-4.644 2.68-6.37zm29.386-2.165h4.61v17.101h-4.61v-5.757c-1.349.74-2.81 1.112-3.956 1.112-2.123 0-3.692-.376-5.099-1.286-1.403-.972-2.188-2.792-2.188-5.428V24.87h4.576v5.428c0 2.008 1.078 3.013 3.236 3.013 1.209 0 2.24-.162 3.432-.62l-.001-7.821zm19.843 17.101l-7.093-7.897v7.897h-4.609V24.845h4.609v6.785l6.471-6.76h5.819l-7.943 7.921 8.401 9.181h-5.655z" fill="#EB2316"/><path fill-rule="evenodd" clip-rule="evenodd" d="M252.248 29.923c-.948-.973-2.126-1.444-3.564-1.444-1.47 0-2.648.47-3.596 1.444-.915.973-1.373 2.133-1.373 3.482 0 1.38.458 2.542 1.406 3.515.949.972 2.125 1.442 3.563 1.442 1.438 0 2.616-.47 3.564-1.442.947-.973 1.438-2.134 1.438-3.515 0-1.349-.491-2.509-1.438-3.482zm1.373-5.052H258v17.1h-4.379v-2.258c-1.531 1.782-3.433 2.667-5.689 2.667-2.549 0-4.674-.847-6.341-2.573-1.667-1.726-2.483-3.89-2.483-6.463 0-2.574.85-4.707 2.516-6.37 1.668-1.694 3.792-2.541 6.308-2.541 2.223 0 4.184.97 5.689 2.68v-2.242zm-102.102-4.298c0-1.474 1.209-2.573 2.778-2.573 1.536 0 2.714 1.161 2.714 2.573 0 1.537-1.178 2.667-2.714 2.667-1.569 0-2.778-1.13-2.778-2.667zm-5.687 11.107h9.054c-.425-2.229-2.093-3.576-4.445-3.576-2.323 0-4.054 1.349-4.609 3.576zM147.171 18c1.537 0 2.746 1.161 2.746 2.573 0 1.537-1.176 2.667-2.746 2.667-1.569 0-2.745-1.13-2.745-2.667 0-1.412 1.209-2.573 2.745-2.573zM159.2 34.975h-13.368c.653 2.415 2.386 3.639 5.197 3.639 1.928 0 4.075-.694 5.703-1.933l1.856 2.802c-2.25 2.022-4.813 2.865-7.756 2.865-3.139 0-5.525-.878-7.191-2.604-1.667-1.725-2.485-3.86-2.485-6.338 0-2.604.85-4.737 2.583-6.431 1.733-1.695 3.956-2.544 6.702-2.544 2.582 0 4.739.785 6.405 2.323 1.668 1.538 2.518 3.608 2.518 6.274 0 .597-.064 1.257-.164 1.947z" fill="#EB2316"/><path fill-rule="evenodd" clip-rule="evenodd" d="M30 0C13.458 0 0 12.785 0 28.5S13.458 57 30 57c16.541 0 30-12.785 30-28.5S46.541 0 30 0z" fill="#fff"/><path fill-rule="evenodd" clip-rule="evenodd" d="M46 8c-2.349 5.794-7.697 7-15.443 7-.831 0-1.655-.013-2.45-.024-.768-.01-1.495-.021-2.208-.021-.632 0-1.27.007-1.899.034 1.085-2.563 2.817-4.304 5.282-5.36 3.437-1.47 7.905-1.486 11.847-1.497C42.847 8.126 44.492 8.119 46 8z" fill="#008F32"/><path fill-rule="evenodd" clip-rule="evenodd" d="M48.126 10.336c-3.413 7.013-11.019 7.716-17.539 7.716-1.431 0-2.802-.033-4.072-.04l-1.642 6.058c8.41-6.468 19.53-.055 18.342 9.705-.802 6.573-5.769 10.872-11.024 12.107-5.725 1.347-12.068-.668-14.912-6.172-.301-.582-.826-1.747-1.027-2.37l6.037-1.463c.107.329.288.646.478.935 4.042 6.15 12.232 3.075 13.156-3.305.941-6.49-8.711-9.947-13.11-2.362l-5.354-2.152-.092-.039 2.582-9.778c.159-.696.696-2.637.788-2.956C23.656 6.097 33.097 5.937 40.67 5.91A27.779 27.779 0 0030.5 4C15.863 4 4 15.192 4 29s11.863 25 26.5 25S57 42.808 57 29c0-7.422-3.43-14.085-8.874-18.664z" fill="#EB2316"/></svg>