<svg width="17" height="20" viewBox="0 0 17 20" fill="none" xmlns="http://www.w3.org/2000/svg"><path d="M10 5.833V.383c.77.291 1.471.743 2.054 1.325l2.903 2.905a5.794 5.794 0 011.326 2.054h-5.45A.833.833 0 0110 5.833zm6.667 2.905v7.095A4.172 4.172 0 0112.5 20H4.167A4.172 4.172 0 010 15.833V4.167A4.172 4.172 0 014.167 0h3.762c.136 0 .27.01.404.02v5.813a2.5 2.5 0 002.5 2.5h5.814c.009.134.02.269.02.405zm-5 5.429a.833.833 0 00-.834-.834H9.167v-1.666a.833.833 0 00-1.667 0v1.666H5.833a.833.833 0 100 1.667H7.5v1.667a.833.833 0 001.667 0V15h1.666a.833.833 0 00.834-.833z" fill="#5C3013"/></svg>