<svg width="273" height="61" viewBox="0 0 273 61" fill="none" xmlns="http://www.w3.org/2000/svg"><g clip-path="url(#clip0_1720_2661)"><path d="M49.798 8.272c.27-.62.27-.62 1.76-4.266-3.587-.413-5.549-.757-8.661-.688C38.837 1.254 34.304.084 29.5.084 13.194.084 0 13.501 0 30.084s13.194 30 29.5 30c16.306 0 29.5-13.417 29.5-30 0-8.6-3.586-16.307-9.202-21.812z" fill="#fff"/><path d="M47.06 12.941c-.068-.069-.135-.069-.203-.069-.067 0-.135.069-.202.069-1.213 1.447-2.628 2.757-4.178 3.79-3.1 2-6.604 3.102-10.31 3.102-6.873 0-10.782-3.446-13.949-5.927-.067-.07-.134-.138-.134-.207 0-.069.067-.138.134-.207 4.92-3.86 8.963-6.34 13.073-7.787.135-.07.202-.138.202-.276s-.134-.207-.27-.276c-.74-.069-1.482-.069-2.223-.069-13.814-.069-25 11.372-25 25.5 0 7.788 3.37 14.749 8.76 19.435.068.07.135.07.27.07.067 0 .134-.07.202-.208l1.01-3.308a.37.37 0 01.337-.206c13.343 2.963 19.07-4.411 18.127-9.029-.808-3.928-7.075-7.374-16.24-2.068-.067.07-.134.07-.202 0 0 0-.067 0-.067-.068-.068-.07-.135-.138-.135-.276l3.1-16.196c0-.069.067-.138.135-.207.067-.069.202 0 .27 0 .875.552 3.503 2.275 6.333 3.998.068.069.135.137.135.275-.067.69-.472 3.24-.606 4.342 0 .07 0 .207.067.276.067.069.135.069.27.069 15.363-4.204 18.598 5.651 18.194 10.338-.944 10.682-12.467 16.333-22.71 16.471-.134 0-.269.07-.269.207 0 .138.067.276.202.276 2.494.827 5.122 1.309 7.817 1.309 13.814 0 25-11.44 25-25.569 0-6.754-2.695-13.025-6.94-17.574z" fill="#E31A4D"/><path d="M23 12.819c8.471 6.326 20.868 3.129 25-6.735-7.645 3.605-16.116 5.918-25 6.735z" fill="#8CBD1B"/><path d="M23 13.084c8.884-.753 17.286-3.08 25-6.778-8.609-.958-17.562 1.164-25 6.778z" fill="#8CBD1B"/><path d="M150.695 23.065c-3.202 0-5.11 2.075-6.677 4.635h-.068c0-2.63-1.022-4.635-3.952-4.635-3.475 0-5.315 2.628-6.541 4.842h-.068c.204-.83.409-2.006.613-2.974a1.032 1.032 0 00-.273-.9c-.204-.277-.545-.415-.885-.415h-3.475l-3.135 17.78c-.068.277 0 .623.205.9.204.207.477.346.817.346h3.68l.272-1.592c1.84-10.585 4.361-13.49 6.405-13.49 1.431 0 1.635 1.383 1.295 3.251L137 41.191c-.068.346 0 .692.273.968.204.277.545.415.885.415h3.611l.273-1.59c1.84-10.517 4.361-13.492 6.405-13.492 1.363 0 1.567 1.315 1.226 3.252l-1.907 10.654c-.069.277 0 .554.204.83.204.208.477.346.749.346h3.748l2.112-12.038a12.81 12.81 0 00.273-2.629c-.069-3.182-1.568-4.842-4.157-4.842zm20.85-4.013l1.635.277c.477.069.886.138 1.022-.623l.546-2.075c.136-.623-.069-.762-.682-.9l-1.499-.277c-.341 0-.886-.138-1.022.623l-.613 2.145c-.068.484.068.76.613.83zm-47.695 4.566h-7.155c-5.314 0-8.857 2.283-8.857 6.573 0 2.283 1.567 3.735 3.134 3.874v.069c-.613.208-1.295 1.038-2.044 1.937-1.295 1.66-2.249 2.768-3.066 2.768-.137 0-.273.138-.341.276l-.409 2.975c0 .138 0 .277.136.346a.52.52 0 00.341.138h1.499c2.453 0 3.271-.968 5.656-4.012 1.839-2.49 2.521-3.252 3.679-3.252h.817l-1.158 6.71c0 .14 0 .278.068.347.068.138.205.138.341.138h4.156c.205 0 .409-.138.409-.346l3.203-18.126c0-.138 0-.277-.069-.346-.068 0-.204-.069-.34-.069zm-5.928 8.302h-2.589c-1.636 0-2.385-.553-2.385-1.66 0-1.868 1.158-2.837 3.407-2.837h2.453l-.886 4.497zm-6.541-17.088c19.895-.83 51.306 2.905 51.306 2.905.409.07.75-.138.886-.484l.341-1.038.545-1.73c.068-.138 0-.207-.068-.345a.917.917 0 00-.273-.208c-3.884-.553-32.569-4.29-53.419-3.805-19.623.484-36.112 4.428-40.54 5.604-.341.07-.614.346-.682.761L69 19.052c0 .138 0 .277.136.346.068.069.205.138.341.069 3.543-.83 8.517-1.66 15.058-2.49l-4.36 24.767c-.137.415-.137.9.68.9h4.225c.273 0 .613-.07.75-.761l4.088-23.938c0-.07.272-1.314 1.635-1.66 1.772-.208 4.838-.346 6.677-.554l-4.565 26.013c-.136.9.273.83.614.83h4.428c.341 0 .886-.069 1.023-.899l4.292-24.975s.273-1.315 1.635-1.592c2.181-.069 3.543-.207 5.724-.276zm54.986 3.528l1.839.277c.477.069.886.138 1.091-.623l.613-2.145c.136-.691-.068-.83-.682-.968l-1.703-.208c-.341-.069-.886-.138-1.09.623l-.613 2.214c-.205.415-.068.692.545.83zm7.154 9.686c0-3.113-2.112-4.912-5.723-4.912-5.996 0-10.766 5.258-10.766 12.384 0 4.497 2.453 7.61 7.154 7.61 3.68 0 6.064-1.453 7.495-2.767l-1.976-3.39c-1.158 1.037-2.793 2.006-4.769 2.006-2.044 0-2.862-1.315-2.93-3.46 6.269-.691 11.515-2.836 11.515-7.471zm-11.174 4.22c.681-2.767 2.248-5.258 4.633-5.258 1.158 0 1.771.484 1.771 1.591-.068 2.007-2.657 3.321-6.404 3.667zm25.959-9.201c-3.27 0-4.973 2.283-6.541 4.98h-.068a21.12 21.12 0 00.477-2.006c.137-.622 0-1.245-.409-1.73-.408-.483-.953-.76-1.567-.76h-2.384l-4.974 27.535h2.793c1.227 0 2.317-.9 2.521-2.145l1.09-6.157c.409.138 1.227.277 2.59.277 6.472 0 11.174-5.327 11.174-13.56.136-3.875-1.772-6.434-4.702-6.434zm-6.336 16.258c-1.09 0-1.635-.139-1.908-.208l.204-1.038c1.431-6.987 3.816-10.515 6.065-10.515 1.158 0 1.703 1.106 1.703 2.836-.136 5.535-2.794 8.925-6.064 8.925zm84.557-16.258c-6.949 0-11.787 5.603-11.787 13.767 0 3.874 1.975 6.227 4.838 6.227 3.065 0 4.905-2.283 6.336-5.05h.067c-.203.83-.34 1.867-.477 2.836-.067.415.069.9.41 1.245.272.346.681.554 1.158.554h3.203c.067-1.384.272-4.497 1.158-9.755L273 24.24c-.818-.415-3.066-1.176-6.473-1.176zm.886 5.12c-1.295 7.125-3.748 10.515-5.793 10.515-1.157 0-1.703-.9-1.703-2.767 0-5.327 2.794-9.063 5.861-9.063.749 0 1.43.138 1.771.207l-.136 1.107zm-19.215 6.918c-.544-1.107-1.09-1.868-1.635-2.353l8.244-9.132h-4.496c-.75 0-1.5.346-2.044.969l-5.792 6.78h-1.022l1.09-6.227c.068-.346 0-.76-.273-1.038a1.293 1.293 0 00-.953-.484h-3.612l-3.27 19.026h3.611c.817 0 1.499-.623 1.635-1.384l1.159-6.434h.544c1.091 0 1.773 1.176 2.93 3.736 1.363 2.975 2.045 4.082 4.43 4.082h1.976l.68-3.805h-.408c-.886 0-1.635-1.177-2.794-3.736zm-20.305-10.309c-.749 4.843-3.202 8.025-5.587 8.025-1.226 0-1.635-.899-1.294-2.975l.613-3.735c.068-.623-.068-1.246-.477-1.73-.408-.484-.954-.761-1.567-.761h-2.521l-1.158 6.434a15.04 15.04 0 00-.205 2.352c0 3.183 1.499 4.912 4.156 4.912 3.34 0 5.52-2.213 6.883-4.635h.067c-.544 2.906-1.294 7.195-1.566 9.893h4.837c.068-1.383.409-4.496 1.295-9.755l1.634-9.27h-4.972l-.138 1.245zm-22.348-1.73c-6.064 0-10.629 5.466-10.629 12.039 0 4.358 2.657 7.956 7.495 7.956 6.2 0 10.492-5.19 10.492-12.038.069-4.497-2.657-7.956-7.358-7.956zm-2.657 16.12c-1.908 0-2.862-1.66-2.862-4.15 0-3.529 1.976-8.026 5.11-8.026 1.908 0 2.862 1.453 2.862 4.082 0 3.46-1.772 8.094-5.11 8.094z" fill="#E31A4D"/></g><defs><clipPath id="clip0_1720_2661"><path fill="#fff" transform="translate(0 .084)" d="M0 0h273v60H0z"/></clipPath></defs></svg>