<svg width="31" height="31" viewBox="0 0 31 31" fill="none" xmlns="http://www.w3.org/2000/svg"><path fill-rule="evenodd" clip-rule="evenodd" d="M15.185.954c-8.284 0-15 6.716-15 15 0 8.284 6.716 15 15 15 8.283 0 15-6.716 15-15 0-8.284-6.717-15-15-15zm6.952 10.201c-.225 2.371-1.202 8.128-1.699 10.784-.21 1.125-.625 1.501-1.025 1.537-.87.08-1.532-.576-2.376-1.128-1.32-.865-2.066-1.404-3.347-2.25-1.482-.975-.522-1.512.322-2.388.221-.23 4.059-3.721 4.134-4.037.009-.04.019-.188-.07-.265-.089-.078-.218-.052-.31-.03-.133.03-2.241 1.423-6.328 4.18-.598.412-1.14.612-1.627.602-.535-.011-1.565-.302-2.331-.552-.94-.305-1.687-.468-1.622-.985.034-.27.405-.547 1.115-.83 4.373-1.904 7.29-3.16 8.748-3.768 4.166-1.732 5.031-2.034 5.596-2.044.708-.01.878.574.82 1.174z" fill="#fff"/></svg>