<svg width="31" height="31" viewBox="0 0 31 31" fill="none" xmlns="http://www.w3.org/2000/svg"><path fill-rule="evenodd" clip-rule="evenodd" d="M15.278.954c8.285 0 15 6.716 15 15 0 8.284-6.715 15-15 15-8.284 0-15-6.716-15-15 0-8.284 6.716-15 15-15zm1.05 15.028v-2.154c-.003-.683 0-1.367.004-2.05a3.25 3.25 0 00-.023-.394c-.04-.322-.201-.476-.522-.51-.054-.004-.108-.004-.161-.004h-3.267a1.16 1.16 0 00-.219.017c-.369.072-.537.438-.346.762.066.109.14.211.224.307.393.466.556 1.017.562 1.612.007.84.004 1.68.002 2.52l-.002.63c0 .196-.003.392-.056.582-.06.211-.21.297-.425.252a.865.865 0 01-.37-.201c-.359-.294-.64-.656-.902-1.034-.952-1.378-1.655-2.881-2.22-4.453-.012-.03-.023-.062-.034-.094a2.723 2.723 0 00-.224-.51.736.736 0 00-.622-.379 1.286 1.286 0 00-.147-.011l-.4-.002c-.599-.002-1.198-.004-1.798.002-.601.005-.818.27-.72.852.085.47.212.933.38 1.381.587 1.65 1.413 3.18 2.369 4.641.567.867 1.153 1.72 1.89 2.457 1.075 1.074 2.306 1.893 3.78 2.307.851.24 1.718.324 2.594.162.49-.09.655-.3.655-.796v-1.817c0-.122.001-.244.008-.366.02-.365.165-.5.52-.506.355-.007.651.155.933.342.614.408 1.146.91 1.65 1.445.213.226.424.454.635.683.197.212.393.425.592.636.304.322.674.475 1.126.463.46-.012.92-.01 1.38-.007l.568.002c.107 0 .215-.007.321-.021.434-.056.643-.348.558-.777a1.66 1.66 0 00-.148-.412 5.694 5.694 0 00-.602-.933 22.568 22.568 0 00-2.29-2.547 2.92 2.92 0 01-.444-.524.563.563 0 01-.024-.62c.08-.146.174-.282.268-.418l.068-.097c.822-1.205 1.637-2.415 2.314-3.711.187-.36.358-.727.444-1.127.084-.387-.087-.627-.48-.675a2.234 2.234 0 00-.263-.019h-2.08a1.561 1.561 0 00-.35.036c-.355.08-.548.326-.685.643-.56 1.287-1.222 2.519-2.051 3.656-.305.418-.63.822-1.034 1.152-.133.11-.267.212-.439.257-.206.056-.343-.007-.428-.201a1.013 1.013 0 01-.07-.429z" fill="#fff"/></svg>