<svg width="31" height="31" viewBox="0 0 31 31" fill="none" xmlns="http://www.w3.org/2000/svg"><path fill-rule="evenodd" clip-rule="evenodd" d="M15.092 30.954c8.284 0 15-6.716 15-15 0-8.284-6.716-15-15-15-8.284 0-15 6.716-15 15 0 8.284 6.716 15 15 15zm-.006-23.57a8.44 8.44 0 016.01 2.49 8.44 8.44 0 012.485 6.01c-.003 4.684-3.814 8.495-8.495 8.495h-.004a8.485 8.485 0 01-4.06-1.034L6.52 24.526l1.206-4.401a8.48 8.48 0 01-1.135-4.247c.002-4.685 3.813-8.495 8.495-8.495zm2.423 9.581c.194.071 1.238.585 1.45.691l.117.057c.148.072.247.12.29.192.053.088.053.513-.124 1.009-.177.496-1.025.949-1.433 1.01a2.918 2.918 0 01-1.337-.085 12.303 12.303 0 01-1.21-.447c-1.991-.86-3.336-2.79-3.589-3.153l-.037-.052-.002-.004c-.115-.153-.864-1.155-.864-2.192 0-.976.48-1.488.7-1.725l.043-.046a.778.778 0 01.566-.265c.142 0 .283 0 .407.007h.047c.124 0 .279-.002.43.364l.216.524c.187.456.402.979.439 1.052.053.106.088.23.018.372a6.825 6.825 0 00-.031.062c-.053.108-.092.188-.183.292-.036.041-.072.086-.109.13a3.13 3.13 0 01-.21.242c-.105.105-.216.22-.092.433.123.212.55.907 1.18 1.47.678.605 1.267.86 1.566.99.059.026.107.046.142.064.212.106.336.088.46-.053.124-.142.53-.62.672-.833.142-.212.283-.176.478-.106z" fill="#fff"/></svg>